<svg width="22" height="18" viewBox="0 0 22 18" fill="none" xmlns="http://www.w3.org/2000/svg">
<path d="M21.46 2.57434C20.69 2.92434 19.86 3.15434 19 3.26434C19.88 2.73434 20.56 1.89434 20.88 0.884341C20.05 1.38434 19.13 1.73434 18.16 1.93434C17.37 1.07434 16.26 0.574341 15 0.574341C12.65 0.574341 10.73 2.49434 10.73 4.86434C10.73 5.20434 10.77 5.53434 10.84 5.84434C7.28001 5.66434 4.11001 3.95434 2.00001 1.36434C1.63001 1.99434 1.42001 2.73434 1.42001 3.51434C1.42001 5.00434 2.17001 6.32434 3.33001 7.07434C2.62001 7.07434 1.96001 6.87434 1.38001 6.57434V6.60434C1.38001 8.68434 2.86001 10.4243 4.82001 10.8143C4.19074 10.9865 3.5301 11.0105 2.89001 10.8843C3.16162 11.7368 3.69355 12.4827 4.41103 13.0173C5.1285 13.5518 5.99546 13.848 6.89001 13.8643C5.37364 15.0648 3.494 15.7137 1.56001 15.7043C1.22001 15.7043 0.880009 15.6843 0.540009 15.6443C2.44001 16.8643 4.70001 17.5743 7.12001 17.5743C15 17.5743 19.33 11.0343 19.33 5.36434C19.33 5.17434 19.33 4.99434 19.32 4.80434C20.16 4.20434 20.88 3.44434 21.46 2.57434Z" fill="white"/>
</svg>
