<svg width="20" height="21" viewBox="0 0 20 21" fill="none" xmlns="http://www.w3.org/2000/svg">
<path d="M5.8 0.574341H14.2C17.4 0.574341 20 3.17434 20 6.37434V14.7743C20 16.3126 19.3889 17.7878 18.3012 18.8756C17.2135 19.9633 15.7383 20.5743 14.2 20.5743H5.8C2.6 20.5743 0 17.9743 0 14.7743V6.37434C0 4.83609 0.61107 3.36083 1.69878 2.27312C2.78649 1.18541 4.26174 0.574341 5.8 0.574341ZM5.6 2.57434C4.64522 2.57434 3.72955 2.95363 3.05442 3.62876C2.37928 4.30389 2 5.21956 2 6.17434V14.9743C2 16.9643 3.61 18.5743 5.6 18.5743H14.4C15.3548 18.5743 16.2705 18.1951 16.9456 17.5199C17.6207 16.8448 18 15.9291 18 14.9743V6.17434C18 4.18434 16.39 2.57434 14.4 2.57434H5.6ZM15.25 4.07434C15.5815 4.07434 15.8995 4.20604 16.1339 4.44046C16.3683 4.67488 16.5 4.99282 16.5 5.32434C16.5 5.65586 16.3683 5.9738 16.1339 6.20822C15.8995 6.44264 15.5815 6.57434 15.25 6.57434C14.9185 6.57434 14.6005 6.44264 14.3661 6.20822C14.1317 5.9738 14 5.65586 14 5.32434C14 4.99282 14.1317 4.67488 14.3661 4.44046C14.6005 4.20604 14.9185 4.07434 15.25 4.07434ZM10 5.57434C11.3261 5.57434 12.5979 6.10112 13.5355 7.03881C14.4732 7.97649 15 9.24826 15 10.5743C15 11.9004 14.4732 13.1722 13.5355 14.1099C12.5979 15.0476 11.3261 15.5743 10 15.5743C8.67392 15.5743 7.40215 15.0476 6.46447 14.1099C5.52678 13.1722 5 11.9004 5 10.5743C5 9.24826 5.52678 7.97649 6.46447 7.03881C7.40215 6.10112 8.67392 5.57434 10 5.57434ZM10 7.57434C9.20435 7.57434 8.44129 7.89041 7.87868 8.45302C7.31607 9.01563 7 9.77869 7 10.5743C7 11.37 7.31607 12.1331 7.87868 12.6957C8.44129 13.2583 9.20435 13.5743 10 13.5743C10.7956 13.5743 11.5587 13.2583 12.1213 12.6957C12.6839 12.1331 13 11.37 13 10.5743C13 9.77869 12.6839 9.01563 12.1213 8.45302C11.5587 7.89041 10.7956 7.57434 10 7.57434Z" fill="white"/>
</svg>
