<svg width="243" height="16" viewBox="0 0 243 16" fill="none" xmlns="http://www.w3.org/2000/svg">
<path d="M3.52 10.26C3.52 10.74 3.60667 11.1467 3.78 11.48C3.95333 11.8133 4.18 12.0867 4.46 12.3C4.75333 12.5 5.09333 12.6533 5.48 12.76C5.86667 12.8533 6.26667 12.9 6.68 12.9C6.96 12.9 7.26 12.88 7.58 12.84C7.9 12.7867 8.2 12.6933 8.48 12.56C8.76 12.4267 8.99333 12.2467 9.18 12.02C9.36667 11.78 9.46 11.48 9.46 11.12C9.46 10.7333 9.33333 10.42 9.08 10.18C8.84 9.94 8.52 9.74 8.12 9.58C7.72 9.42 7.26667 9.28 6.76 9.16C6.25333 9.04 5.74 8.90667 5.22 8.76C4.68667 8.62667 4.16667 8.46667 3.66 8.28C3.15333 8.08 2.7 7.82667 2.3 7.52C1.9 7.21333 1.57333 6.83333 1.32 6.38C1.08 5.91333 0.96 5.35333 0.96 4.7C0.96 3.96667 1.11333 3.33333 1.42 2.8C1.74 2.25333 2.15333 1.8 2.66 1.44C3.16667 1.08 3.74 0.813332 4.38 0.639999C5.02 0.466666 5.66 0.38 6.3 0.38C7.04667 0.38 7.76 0.466666 8.44 0.639999C9.13333 0.799999 9.74667 1.06667 10.28 1.44C10.8133 1.81333 11.2333 2.29333 11.54 2.88C11.86 3.45333 12.02 4.15333 12.02 4.98H8.98C8.95333 4.55333 8.86 4.2 8.7 3.92C8.55333 3.64 8.35333 3.42 8.1 3.26C7.84667 3.1 7.55333 2.98667 7.22 2.92C6.9 2.85333 6.54667 2.82 6.16 2.82C5.90667 2.82 5.65333 2.84667 5.4 2.9C5.14667 2.95333 4.91333 3.04667 4.7 3.18C4.5 3.31333 4.33333 3.48 4.2 3.68C4.06667 3.88 4 4.13333 4 4.44C4 4.72 4.05333 4.94667 4.16 5.12C4.26667 5.29333 4.47333 5.45333 4.78 5.6C5.1 5.74667 5.53333 5.89333 6.08 6.04C6.64 6.18667 7.36667 6.37333 8.26 6.6C8.52667 6.65333 8.89333 6.75333 9.36 6.9C9.84 7.03333 10.3133 7.25333 10.78 7.56C11.2467 7.86667 11.6467 8.28 11.98 8.8C12.3267 9.30667 12.5 9.96 12.5 10.76C12.5 11.4133 12.3733 12.02 12.12 12.58C11.8667 13.14 11.4867 13.6267 10.98 14.04C10.4867 14.44 9.86667 14.7533 9.12 14.98C8.38667 15.2067 7.53333 15.32 6.56 15.32C5.77333 15.32 5.00667 15.22 4.26 15.02C3.52667 14.8333 2.87333 14.5333 2.3 14.12C1.74 13.7067 1.29333 13.18 0.96 12.54C0.626667 11.9 0.466667 11.14 0.48 10.26H3.52ZM16.5883 9.84C16.5883 10.2533 16.6283 10.66 16.7083 11.06C16.7883 11.4467 16.9216 11.8 17.1083 12.12C17.3083 12.4267 17.5683 12.6733 17.8883 12.86C18.2083 13.0467 18.6083 13.14 19.0883 13.14C19.5683 13.14 19.9683 13.0467 20.2883 12.86C20.6216 12.6733 20.8816 12.4267 21.0683 12.12C21.2683 11.8 21.4083 11.4467 21.4883 11.06C21.5683 10.66 21.6083 10.2533 21.6083 9.84C21.6083 9.42667 21.5683 9.02 21.4883 8.62C21.4083 8.22 21.2683 7.86667 21.0683 7.56C20.8816 7.25333 20.6216 7.00667 20.2883 6.82C19.9683 6.62 19.5683 6.52 19.0883 6.52C18.6083 6.52 18.2083 6.62 17.8883 6.82C17.5683 7.00667 17.3083 7.25333 17.1083 7.56C16.9216 7.86667 16.7883 8.22 16.7083 8.62C16.6283 9.02 16.5883 9.42667 16.5883 9.84ZM13.7483 9.84C13.7483 9.01333 13.8749 8.26667 14.1283 7.6C14.3816 6.92 14.7416 6.34667 15.2083 5.88C15.6749 5.4 16.2349 5.03333 16.8883 4.78C17.5416 4.51333 18.2749 4.38 19.0883 4.38C19.9016 4.38 20.6349 4.51333 21.2883 4.78C21.9549 5.03333 22.5216 5.4 22.9883 5.88C23.4549 6.34667 23.8149 6.92 24.0683 7.6C24.3216 8.26667 24.4483 9.01333 24.4483 9.84C24.4483 10.6667 24.3216 11.4133 24.0683 12.08C23.8149 12.7467 23.4549 13.32 22.9883 13.8C22.5216 14.2667 21.9549 14.6267 21.2883 14.88C20.6349 15.1333 19.9016 15.26 19.0883 15.26C18.2749 15.26 17.5416 15.1333 16.8883 14.88C16.2349 14.6267 15.6749 14.2667 15.2083 13.8C14.7416 13.32 14.3816 12.7467 14.1283 12.08C13.8749 11.4133 13.7483 10.6667 13.7483 9.84ZM26.9148 6.56H25.2148V4.66H26.9148V3.86C26.9148 2.94 27.2015 2.18667 27.7748 1.6C28.3482 1.01333 29.2148 0.719999 30.3748 0.719999C30.6282 0.719999 30.8815 0.733333 31.1348 0.76C31.3882 0.773333 31.6348 0.786666 31.8748 0.799999V2.92C31.5415 2.88 31.1948 2.86 30.8348 2.86C30.4482 2.86 30.1682 2.95333 29.9948 3.14C29.8348 3.31333 29.7548 3.61333 29.7548 4.04V4.66H31.7148V6.56H29.7548V15H26.9148V6.56ZM36.555 4.66H38.635V6.56H36.555V11.68C36.555 12.16 36.635 12.48 36.795 12.64C36.955 12.8 37.275 12.88 37.755 12.88C37.915 12.88 38.0683 12.8733 38.215 12.86C38.3617 12.8467 38.5017 12.8267 38.635 12.8V15C38.395 15.04 38.1283 15.0667 37.835 15.08C37.5417 15.0933 37.255 15.1 36.975 15.1C36.535 15.1 36.115 15.0667 35.715 15C35.3283 14.9467 34.9817 14.8333 34.675 14.66C34.3817 14.4867 34.1483 14.24 33.975 13.92C33.8017 13.6 33.715 13.18 33.715 12.66V6.56H31.995V4.66H33.715V1.56H36.555V4.66ZM51.8063 15H48.8863L47.0463 8.06H47.0063L45.2463 15H42.3063L39.0263 4.66H42.0263L43.9263 11.68H43.9663L45.6863 4.66H48.4463L50.2062 11.66H50.2463L52.1463 4.66H55.0663L51.8063 15ZM56.1553 7.84C56.1953 7.17333 56.362 6.62 56.6553 6.18C56.9486 5.74 57.322 5.38667 57.7753 5.12C58.2286 4.85333 58.7353 4.66667 59.2953 4.56C59.8686 4.44 60.442 4.38 61.0153 4.38C61.5353 4.38 62.062 4.42 62.5953 4.5C63.1286 4.56667 63.6153 4.70667 64.0553 4.92C64.4953 5.13333 64.8553 5.43333 65.1353 5.82C65.4153 6.19333 65.5553 6.69333 65.5553 7.32V12.7C65.5553 13.1667 65.582 13.6133 65.6353 14.04C65.6886 14.4667 65.782 14.7867 65.9153 15H63.0353C62.982 14.84 62.9353 14.68 62.8953 14.52C62.8686 14.3467 62.8486 14.1733 62.8353 14C62.382 14.4667 61.8486 14.7933 61.2353 14.98C60.622 15.1667 59.9953 15.26 59.3553 15.26C58.862 15.26 58.402 15.2 57.9753 15.08C57.5486 14.96 57.1753 14.7733 56.8553 14.52C56.5353 14.2667 56.282 13.9467 56.0953 13.56C55.922 13.1733 55.8353 12.7133 55.8353 12.18C55.8353 11.5933 55.9353 11.1133 56.1353 10.74C56.3486 10.3533 56.6153 10.0467 56.9353 9.82C57.2686 9.59333 57.642 9.42667 58.0553 9.32C58.482 9.2 58.9086 9.10667 59.3353 9.04C59.762 8.97333 60.182 8.92 60.5953 8.88C61.0086 8.84 61.3753 8.78 61.6953 8.7C62.0153 8.62 62.2686 8.50667 62.4553 8.36C62.642 8.2 62.7286 7.97333 62.7153 7.68C62.7153 7.37333 62.662 7.13333 62.5553 6.96C62.462 6.77333 62.3286 6.63333 62.1553 6.54C61.9953 6.43333 61.802 6.36667 61.5753 6.34C61.362 6.3 61.1286 6.28 60.8753 6.28C60.3153 6.28 59.8753 6.4 59.5553 6.64C59.2353 6.88 59.0486 7.28 58.9953 7.84H56.1553ZM62.7153 9.94C62.5953 10.0467 62.442 10.1333 62.2553 10.2C62.082 10.2533 61.8886 10.3 61.6753 10.34C61.4753 10.38 61.262 10.4133 61.0353 10.44C60.8086 10.4667 60.582 10.5 60.3553 10.54C60.142 10.58 59.9286 10.6333 59.7153 10.7C59.5153 10.7667 59.3353 10.86 59.1753 10.98C59.0286 11.0867 58.9086 11.2267 58.8153 11.4C58.722 11.5733 58.6753 11.7933 58.6753 12.06C58.6753 12.3133 58.722 12.5267 58.8153 12.7C58.9086 12.8733 59.0353 13.0133 59.1953 13.12C59.3553 13.2133 59.542 13.28 59.7553 13.32C59.9686 13.36 60.1886 13.38 60.4153 13.38C60.9753 13.38 61.4086 13.2867 61.7153 13.1C62.022 12.9133 62.2486 12.6933 62.3953 12.44C62.542 12.1733 62.6286 11.9067 62.6553 11.64C62.6953 11.3733 62.7153 11.16 62.7153 11V9.94ZM67.7597 4.66H70.4597V6.58H70.4997C70.633 6.26 70.813 5.96667 71.0397 5.7C71.2664 5.42 71.5264 5.18667 71.8197 5C72.113 4.8 72.4264 4.64667 72.7597 4.54C73.093 4.43333 73.4397 4.38 73.7997 4.38C73.9864 4.38 74.193 4.41333 74.4197 4.48V7.12C74.2864 7.09333 74.1264 7.07333 73.9397 7.06C73.753 7.03333 73.573 7.02 73.3997 7.02C72.8797 7.02 72.4397 7.10667 72.0797 7.28C71.7197 7.45333 71.4264 7.69333 71.1997 8C70.9864 8.29333 70.833 8.64 70.7397 9.04C70.6464 9.44 70.5997 9.87333 70.5997 10.34V15H67.7597V4.66ZM82.1416 8.72C82.0082 8 81.7682 7.45333 81.4216 7.08C81.0882 6.70667 80.5749 6.52 79.8816 6.52C79.4282 6.52 79.0482 6.6 78.7416 6.76C78.4482 6.90667 78.2082 7.09333 78.0216 7.32C77.8482 7.54667 77.7216 7.78667 77.6416 8.04C77.5749 8.29333 77.5349 8.52 77.5216 8.72H82.1416ZM77.5216 10.52C77.5616 11.44 77.7949 12.1067 78.2216 12.52C78.6482 12.9333 79.2616 13.14 80.0616 13.14C80.6349 13.14 81.1282 13 81.5416 12.72C81.9549 12.4267 82.2082 12.12 82.3016 11.8H84.8016C84.4016 13.04 83.7882 13.9267 82.9616 14.46C82.1349 14.9933 81.1349 15.26 79.9616 15.26C79.1482 15.26 78.4149 15.1333 77.7616 14.88C77.1082 14.6133 76.5549 14.24 76.1016 13.76C75.6482 13.28 75.2949 12.7067 75.0416 12.04C74.8016 11.3733 74.6816 10.64 74.6816 9.84C74.6816 9.06667 74.8082 8.34667 75.0616 7.68C75.3149 7.01333 75.6749 6.44 76.1416 5.96C76.6082 5.46667 77.1616 5.08 77.8016 4.8C78.4549 4.52 79.1749 4.38 79.9616 4.38C80.8416 4.38 81.6082 4.55333 82.2616 4.9C82.9149 5.23333 83.4482 5.68667 83.8616 6.26C84.2882 6.83333 84.5949 7.48667 84.7816 8.22C84.9682 8.95333 85.0349 9.72 84.9816 10.52H77.5216ZM95.6723 7.18H99.1123C99.8323 7.18 100.372 7.02 100.732 6.7C101.092 6.38 101.272 5.86 101.272 5.14C101.272 4.44667 101.092 3.94667 100.732 3.64C100.372 3.32 99.8323 3.16 99.1123 3.16H95.6723V7.18ZM92.5323 0.719999H100.232C100.872 0.719999 101.446 0.826666 101.952 1.04C102.472 1.24 102.912 1.52 103.272 1.88C103.646 2.24 103.926 2.66 104.112 3.14C104.312 3.60667 104.412 4.11333 104.412 4.66C104.412 5.5 104.232 6.22667 103.872 6.84C103.526 7.45333 102.952 7.92 102.152 8.24V8.28C102.539 8.38667 102.859 8.55333 103.112 8.78C103.366 8.99333 103.572 9.25333 103.732 9.56C103.892 9.85333 104.006 10.18 104.072 10.54C104.152 10.9 104.206 11.26 104.232 11.62C104.246 11.8467 104.259 12.1133 104.272 12.42C104.286 12.7267 104.306 13.04 104.332 13.36C104.372 13.68 104.426 13.9867 104.492 14.28C104.572 14.56 104.686 14.8 104.832 15H101.692C101.519 14.5467 101.412 14.0067 101.372 13.38C101.332 12.7533 101.272 12.1533 101.192 11.58C101.086 10.8333 100.859 10.2867 100.512 9.94C100.166 9.59333 99.599 9.42 98.8123 9.42H95.6723V15H92.5323V0.719999ZM113.626 8.72C113.493 8 113.253 7.45333 112.906 7.08C112.573 6.70667 112.059 6.52 111.366 6.52C110.913 6.52 110.533 6.6 110.226 6.76C109.933 6.90667 109.693 7.09333 109.506 7.32C109.333 7.54667 109.206 7.78667 109.126 8.04C109.059 8.29333 109.019 8.52 109.006 8.72H113.626ZM109.006 10.52C109.046 11.44 109.279 12.1067 109.706 12.52C110.133 12.9333 110.746 13.14 111.546 13.14C112.119 13.14 112.613 13 113.026 12.72C113.439 12.4267 113.693 12.12 113.786 11.8H116.286C115.886 13.04 115.273 13.9267 114.446 14.46C113.619 14.9933 112.619 15.26 111.446 15.26C110.633 15.26 109.899 15.1333 109.246 14.88C108.593 14.6133 108.039 14.24 107.586 13.76C107.133 13.28 106.779 12.7067 106.526 12.04C106.286 11.3733 106.166 10.64 106.166 9.84C106.166 9.06667 106.293 8.34667 106.546 7.68C106.799 7.01333 107.159 6.44 107.626 5.96C108.093 5.46667 108.646 5.08 109.286 4.8C109.939 4.52 110.659 4.38 111.446 4.38C112.326 4.38 113.093 4.55333 113.746 4.9C114.399 5.23333 114.933 5.68667 115.346 6.26C115.773 6.83333 116.079 7.48667 116.266 8.22C116.453 8.95333 116.519 9.72 116.466 10.52H109.006ZM125.19 8.3C125.004 7.11333 124.304 6.52 123.09 6.52C122.637 6.52 122.257 6.62667 121.95 6.84C121.644 7.04 121.39 7.30667 121.19 7.64C121.004 7.96 120.87 8.32 120.79 8.72C120.71 9.10667 120.67 9.49333 120.67 9.88C120.67 10.2533 120.71 10.6333 120.79 11.02C120.87 11.4067 120.997 11.76 121.17 12.08C121.357 12.3867 121.604 12.64 121.91 12.84C122.217 13.04 122.59 13.14 123.03 13.14C123.71 13.14 124.23 12.9533 124.59 12.58C124.964 12.1933 125.197 11.68 125.29 11.04H128.03C127.844 12.4133 127.31 13.46 126.43 14.18C125.55 14.9 124.424 15.26 123.05 15.26C122.277 15.26 121.564 15.1333 120.91 14.88C120.27 14.6133 119.724 14.2467 119.27 13.78C118.817 13.3133 118.464 12.76 118.21 12.12C117.957 11.4667 117.83 10.7533 117.83 9.98C117.83 9.18 117.944 8.44 118.17 7.76C118.41 7.06667 118.757 6.47333 119.21 5.98C119.664 5.47333 120.217 5.08 120.87 4.8C121.524 4.52 122.27 4.38 123.11 4.38C123.724 4.38 124.31 4.46 124.87 4.62C125.444 4.78 125.95 5.02667 126.39 5.36C126.844 5.68 127.21 6.08667 127.49 6.58C127.77 7.06 127.93 7.63333 127.97 8.3H125.19ZM129.635 4.66H132.335V6.58H132.375C132.508 6.26 132.688 5.96667 132.915 5.7C133.141 5.42 133.401 5.18667 133.695 5C133.988 4.8 134.301 4.64667 134.635 4.54C134.968 4.43333 135.315 4.38 135.675 4.38C135.861 4.38 136.068 4.41333 136.295 4.48V7.12C136.161 7.09333 136.001 7.07333 135.815 7.06C135.628 7.03333 135.448 7.02 135.275 7.02C134.755 7.02 134.315 7.10667 133.955 7.28C133.595 7.45333 133.301 7.69333 133.075 8C132.861 8.29333 132.708 8.64 132.615 9.04C132.521 9.44 132.475 9.87333 132.475 10.34V15H129.635V4.66ZM147.108 15H144.408V13.56H144.348C143.988 14.16 143.521 14.5933 142.948 14.86C142.375 15.1267 141.788 15.26 141.188 15.26C140.428 15.26 139.801 15.16 139.308 14.96C138.828 14.76 138.448 14.48 138.168 14.12C137.888 13.7467 137.688 13.3 137.568 12.78C137.461 12.2467 137.408 11.66 137.408 11.02V4.66H140.248V10.5C140.248 11.3533 140.381 11.9933 140.648 12.42C140.915 12.8333 141.388 13.04 142.068 13.04C142.841 13.04 143.401 12.8133 143.748 12.36C144.095 11.8933 144.268 11.1333 144.268 10.08V4.66H147.108V15ZM152.184 3.06H149.344V0.719999H152.184V3.06ZM149.344 4.66H152.184V15H149.344V4.66ZM158.02 4.66H160.1V6.56H158.02V11.68C158.02 12.16 158.1 12.48 158.26 12.64C158.42 12.8 158.74 12.88 159.22 12.88C159.38 12.88 159.533 12.8733 159.68 12.86C159.827 12.8467 159.967 12.8267 160.1 12.8V15C159.86 15.04 159.593 15.0667 159.3 15.08C159.007 15.0933 158.72 15.1 158.44 15.1C158 15.1 157.58 15.0667 157.18 15C156.793 14.9467 156.447 14.8333 156.14 14.66C155.847 14.4867 155.613 14.24 155.44 13.92C155.267 13.6 155.18 13.18 155.18 12.66V6.56H153.46V4.66H155.18V1.56H158.02V4.66ZM161.531 4.66H164.211V6.06H164.251C164.624 5.52667 165.071 5.11333 165.591 4.82C166.124 4.52667 166.731 4.38 167.411 4.38C168.064 4.38 168.658 4.50667 169.191 4.76C169.738 5.01333 170.151 5.46 170.431 6.1C170.738 5.64667 171.151 5.24667 171.671 4.9C172.204 4.55333 172.831 4.38 173.551 4.38C174.098 4.38 174.604 4.44667 175.071 4.58C175.538 4.71333 175.938 4.92667 176.271 5.22C176.604 5.51333 176.864 5.9 177.051 6.38C177.238 6.84667 177.331 7.41333 177.331 8.08V15H174.491V9.14C174.491 8.79333 174.478 8.46667 174.451 8.16C174.424 7.85333 174.351 7.58667 174.231 7.36C174.111 7.13333 173.931 6.95333 173.691 6.82C173.464 6.68667 173.151 6.62 172.751 6.62C172.351 6.62 172.024 6.7 171.771 6.86C171.531 7.00667 171.338 7.20667 171.191 7.46C171.058 7.7 170.964 7.98 170.911 8.3C170.871 8.60667 170.851 8.92 170.851 9.24V15H168.011V9.2C168.011 8.89333 168.004 8.59333 167.991 8.3C167.978 7.99333 167.918 7.71333 167.811 7.46C167.718 7.20667 167.551 7.00667 167.311 6.86C167.084 6.7 166.744 6.62 166.291 6.62C166.158 6.62 165.978 6.65333 165.751 6.72C165.538 6.77333 165.324 6.88667 165.111 7.06C164.911 7.22 164.738 7.46 164.591 7.78C164.444 8.08667 164.371 8.49333 164.371 9V15H161.531V4.66ZM186.536 8.72C186.403 8 186.163 7.45333 185.816 7.08C185.483 6.70667 184.969 6.52 184.276 6.52C183.823 6.52 183.443 6.6 183.136 6.76C182.843 6.90667 182.603 7.09333 182.416 7.32C182.243 7.54667 182.116 7.78667 182.036 8.04C181.969 8.29333 181.929 8.52 181.916 8.72H186.536ZM181.916 10.52C181.956 11.44 182.189 12.1067 182.616 12.52C183.043 12.9333 183.656 13.14 184.456 13.14C185.029 13.14 185.523 13 185.936 12.72C186.349 12.4267 186.603 12.12 186.696 11.8H189.196C188.796 13.04 188.183 13.9267 187.356 14.46C186.529 14.9933 185.529 15.26 184.356 15.26C183.543 15.26 182.809 15.1333 182.156 14.88C181.503 14.6133 180.949 14.24 180.496 13.76C180.043 13.28 179.689 12.7067 179.436 12.04C179.196 11.3733 179.076 10.64 179.076 9.84C179.076 9.06667 179.203 8.34667 179.456 7.68C179.709 7.01333 180.069 6.44 180.536 5.96C181.003 5.46667 181.556 5.08 182.196 4.8C182.849 4.52 183.569 4.38 184.356 4.38C185.236 4.38 186.003 4.55333 186.656 4.9C187.309 5.23333 187.843 5.68667 188.256 6.26C188.683 6.83333 188.989 7.48667 189.176 8.22C189.363 8.95333 189.429 9.72 189.376 10.52H181.916ZM191.06 4.66H193.76V6.1H193.82C194.18 5.5 194.647 5.06667 195.22 4.8C195.794 4.52 196.38 4.38 196.98 4.38C197.74 4.38 198.36 4.48667 198.84 4.7C199.334 4.9 199.72 5.18667 200 5.56C200.28 5.92 200.474 6.36667 200.58 6.9C200.7 7.42 200.76 8 200.76 8.64V15H197.92V9.16C197.92 8.30667 197.787 7.67333 197.52 7.26C197.254 6.83333 196.78 6.62 196.1 6.62C195.327 6.62 194.767 6.85333 194.42 7.32C194.074 7.77333 193.9 8.52667 193.9 9.58V15H191.06V4.66ZM206.516 4.66H208.596V6.56H206.516V11.68C206.516 12.16 206.596 12.48 206.756 12.64C206.916 12.8 207.236 12.88 207.716 12.88C207.876 12.88 208.029 12.8733 208.176 12.86C208.323 12.8467 208.463 12.8267 208.596 12.8V15C208.356 15.04 208.089 15.0667 207.796 15.08C207.503 15.0933 207.216 15.1 206.936 15.1C206.496 15.1 206.076 15.0667 205.676 15C205.289 14.9467 204.943 14.8333 204.636 14.66C204.343 14.4867 204.109 14.24 203.936 13.92C203.763 13.6 203.676 13.18 203.676 12.66V6.56H201.956V4.66H203.676V1.56H206.516V4.66ZM222.554 8.3C222.367 7.11333 221.667 6.52 220.454 6.52C220 6.52 219.62 6.62667 219.314 6.84C219.007 7.04 218.754 7.30667 218.554 7.64C218.367 7.96 218.234 8.32 218.154 8.72C218.074 9.10667 218.034 9.49333 218.034 9.88C218.034 10.2533 218.074 10.6333 218.154 11.02C218.234 11.4067 218.36 11.76 218.534 12.08C218.72 12.3867 218.967 12.64 219.274 12.84C219.58 13.04 219.954 13.14 220.394 13.14C221.074 13.14 221.594 12.9533 221.954 12.58C222.327 12.1933 222.56 11.68 222.654 11.04H225.394C225.207 12.4133 224.674 13.46 223.794 14.18C222.914 14.9 221.787 15.26 220.414 15.26C219.64 15.26 218.927 15.1333 218.274 14.88C217.634 14.6133 217.087 14.2467 216.634 13.78C216.18 13.3133 215.827 12.76 215.574 12.12C215.32 11.4667 215.194 10.7533 215.194 9.98C215.194 9.18 215.307 8.44 215.534 7.76C215.774 7.06667 216.12 6.47333 216.574 5.98C217.027 5.47333 217.58 5.08 218.234 4.8C218.887 4.52 219.634 4.38 220.474 4.38C221.087 4.38 221.674 4.46 222.234 4.62C222.807 4.78 223.314 5.02667 223.754 5.36C224.207 5.68 224.574 6.08667 224.854 6.58C225.134 7.06 225.294 7.63333 225.334 8.3H222.554ZM229.518 9.84C229.518 10.2533 229.558 10.66 229.638 11.06C229.718 11.4467 229.851 11.8 230.038 12.12C230.238 12.4267 230.498 12.6733 230.818 12.86C231.138 13.0467 231.538 13.14 232.018 13.14C232.498 13.14 232.898 13.0467 233.218 12.86C233.551 12.6733 233.811 12.4267 233.998 12.12C234.198 11.8 234.338 11.4467 234.418 11.06C234.498 10.66 234.538 10.2533 234.538 9.84C234.538 9.42667 234.498 9.02 234.418 8.62C234.338 8.22 234.198 7.86667 233.998 7.56C233.811 7.25333 233.551 7.00667 233.218 6.82C232.898 6.62 232.498 6.52 232.018 6.52C231.538 6.52 231.138 6.62 230.818 6.82C230.498 7.00667 230.238 7.25333 230.038 7.56C229.851 7.86667 229.718 8.22 229.638 8.62C229.558 9.02 229.518 9.42667 229.518 9.84ZM226.678 9.84C226.678 9.01333 226.805 8.26667 227.058 7.6C227.311 6.92 227.671 6.34667 228.138 5.88C228.605 5.4 229.165 5.03333 229.818 4.78C230.471 4.51333 231.205 4.38 232.018 4.38C232.831 4.38 233.565 4.51333 234.218 4.78C234.885 5.03333 235.451 5.4 235.918 5.88C236.385 6.34667 236.745 6.92 236.998 7.6C237.251 8.26667 237.378 9.01333 237.378 9.84C237.378 10.6667 237.251 11.4133 236.998 12.08C236.745 12.7467 236.385 13.32 235.918 13.8C235.451 14.2667 234.885 14.6267 234.218 14.88C233.565 15.1333 232.831 15.26 232.018 15.26C231.205 15.26 230.471 15.1333 229.818 14.88C229.165 14.6267 228.605 14.2667 228.138 13.8C227.671 13.32 227.311 12.7467 227.058 12.08C226.805 11.4133 226.678 10.6667 226.678 9.84ZM239.345 11.92H242.485V15H239.345V11.92Z" fill="#064EA4"/>
</svg>
